<?xml version="1.0" encoding="UTF-8" standalone="no"?>
<svg
   aria-hidden="true"
   focusable="false"
   data-prefix="far"
   data-icon="calendar-alt"
   class="svg-inline--fa fa-calendar-alt fa-w-14"
   role="img"
   viewBox="0 0 448 512"
   version="1.1"
   id="svg353"
   sodipodi:docname="calendar.svg"
   inkscape:version="1.1 (1:1.1+202105261517+ce6663b3b7)"
   xmlns:inkscape="http://www.inkscape.org/namespaces/inkscape"
   xmlns:sodipodi="http://sodipodi.sourceforge.net/DTD/sodipodi-0.dtd"
   xmlns="http://www.w3.org/2000/svg"
   xmlns:svg="http://www.w3.org/2000/svg">
  <defs
     id="defs357" />
  <sodipodi:namedview
     id="namedview355"
     pagecolor="#ffffff"
     bordercolor="#666666"
     borderopacity="1.0"
     inkscape:pageshadow="2"
     inkscape:pageopacity="0.0"
     inkscape:pagecheckerboard="0"
     showgrid="false"
     inkscape:zoom="1.1727114"
     inkscape:cx="-49.884396"
     inkscape:cy="176.94038"
     inkscape:window-width="1910"
     inkscape:window-height="1046"
     inkscape:window-x="5"
     inkscape:window-y="29"
     inkscape:window-maximized="1"
     inkscape:current-layer="svg353" />
  <path
     fill="currentColor"
     d="m 173.25484,277.36638 h -26.70797 c -4.40682,0 -8.01241,-3.60557 -8.01241,-8.01239 v -26.70798 c 0,-4.40682 3.60559,-8.01239 8.01241,-8.01239 h 26.70797 c 4.40682,0 8.01239,3.60557 8.01239,8.01239 v 26.70798 c 0,4.40682 -3.60557,8.01239 -8.01239,8.01239 z m 72.11154,-8.01239 v -26.70798 c 0,-4.40682 -3.60557,-8.01239 -8.01239,-8.01239 h -26.70798 c -4.40682,0 -8.01239,3.60557 -8.01239,8.01239 v 26.70798 c 0,4.40682 3.60557,8.01239 8.01239,8.01239 h 26.70798 c 4.40682,0 8.01239,-3.60557 8.01239,-8.01239 z m 64.09914,0 v -26.70798 c 0,-4.40682 -3.60557,-8.01239 -8.01239,-8.01239 h -26.70797 c -4.40682,0 -8.01239,3.60557 -8.01239,8.01239 v 26.70798 c 0,4.40682 3.60557,8.01239 8.01239,8.01239 h 26.70797 c 4.40682,0 8.01239,-3.60557 8.01239,-8.01239 z m -64.09914,64.09914 v -26.70797 c 0,-4.40682 -3.60557,-8.01239 -8.01239,-8.01239 h -26.70798 c -4.40682,0 -8.01239,3.60557 -8.01239,8.01239 v 26.70797 c 0,4.40682 3.60557,8.01239 8.01239,8.01239 h 26.70798 c 4.40682,0 8.01239,-3.60557 8.01239,-8.01239 z m -64.09915,0 v -26.70797 c 0,-4.40682 -3.60557,-8.01239 -8.01239,-8.01239 h -26.70797 c -4.40682,0 -8.01241,3.60557 -8.01241,8.01239 v 26.70797 c 0,4.40682 3.60559,8.01239 8.01241,8.01239 h 26.70797 c 4.40682,0 8.01239,-3.60557 8.01239,-8.01239 z m 128.19829,0 v -26.70797 c 0,-4.40682 -3.60557,-8.01239 -8.01239,-8.01239 h -26.70797 c -4.40682,0 -8.01239,3.60557 -8.01239,8.01239 v 26.70797 c 0,4.40682 3.60557,8.01239 8.01239,8.01239 h 26.70797 c 4.40682,0 8.01239,-3.60557 8.01239,-8.01239 z m 64.09915,-173.60185 v 235.03021 c 0,17.69402 -14.35553,32.04957 -32.04956,32.04957 H 106.48489 c -17.694033,0 -32.049565,-14.35555 -32.049565,-32.04957 V 159.85128 c 0,-17.69404 14.355532,-32.04957 32.049565,-32.04957 h 32.04957 V 93.08133 c 0,-4.406813 3.60559,-8.012389 8.01241,-8.012389 h 26.70797 c 4.40682,0 8.01239,3.605576 8.01239,8.012389 v 34.72038 h 85.46554 V 93.08133 c 0,-4.406813 3.60557,-8.012389 8.01239,-8.012389 h 26.70797 c 4.40682,0 8.01239,3.605576 8.01239,8.012389 v 34.72038 h 32.04959 c 17.69403,0 32.04956,14.35553 32.04956,32.04957 z M 341.51511,390.87529 V 191.90086 H 106.48489 v 198.97443 c 0,2.2034 1.80279,4.0062 4.00621,4.0062 h 227.0178 c 2.20342,0 4.00621,-1.8028 4.00621,-4.0062 z"
     id="path351"
     style="stroke-width:0.667698;fill:#ffffff" />
</svg>
