<?xml version="1.0" encoding="UTF-8" standalone="no"?>
<svg
   aria-hidden="true"
   focusable="false"
   data-prefix="fas"
   data-icon="battery-half"
   class="svg-inline--fa fa-battery-half fa-w-20"
   role="img"
   viewBox="0 0 640 512"
   version="1.1"
   id="svg4"
   sodipodi:docname="battery-low.svg"
   inkscape:version="1.1 (1:1.1+202105261517+ce6663b3b7)"
   xmlns:inkscape="http://www.inkscape.org/namespaces/inkscape"
   xmlns:sodipodi="http://sodipodi.sourceforge.net/DTD/sodipodi-0.dtd"
   xmlns="http://www.w3.org/2000/svg"
   xmlns:svg="http://www.w3.org/2000/svg">
  <defs
     id="defs8" />
  <sodipodi:namedview
     id="namedview6"
     pagecolor="#505050"
     bordercolor="#eeeeee"
     borderopacity="1"
     inkscape:pageshadow="0"
     inkscape:pageopacity="0"
     inkscape:pagecheckerboard="0"
     showgrid="false"
     inkscape:zoom="0.85058594"
     inkscape:cx="350.93456"
     inkscape:cy="372.09644"
     inkscape:window-width="1910"
     inkscape:window-height="1046"
     inkscape:window-x="5"
     inkscape:window-y="29"
     inkscape:window-maximized="1"
     inkscape:current-layer="svg4" />
  <path
     fill="currentColor"
     d="m 460,196 v 40 h 20 v 40 h -20 v 40 H 160 V 196 h 300 m 10,-40 H 150 c -16.56875,0 -30,13.43125 -30,30 v 140 c 0,16.56875 13.43125,30 30,30 h 320 c 16.56875,0 30,-13.43125 30,-30 v -10 h 5 c 8.28437,0 15,-6.71563 15,-15 v -90 c 0,-8.28438 -6.71563,-15 -15,-15 h -5 v -10 c 0,-16.56875 -13.43125,-30 -30,-30 z M 320,216 H 180 v 80 h 140 z"
     id="path2"
     style="stroke-width:0.625;fill:#ffffff" />
</svg>
