<?xml version="1.0" encoding="UTF-8" standalone="no"?>
<svg
   aria-hidden="true"
   focusable="false"
   data-prefix="fas"
   data-icon="battery-full"
   class="svg-inline--fa fa-battery-full fa-w-20"
   role="img"
   viewBox="0 0 640 512"
   version="1.1"
   id="svg473"
   sodipodi:docname="battery-full-charged.svg"
   inkscape:version="1.1 (1:1.1+202105261517+ce6663b3b7)"
   xmlns:inkscape="http://www.inkscape.org/namespaces/inkscape"
   xmlns:sodipodi="http://sodipodi.sourceforge.net/DTD/sodipodi-0.dtd"
   xmlns="http://www.w3.org/2000/svg"
   xmlns:svg="http://www.w3.org/2000/svg">
  <defs
     id="defs477" />
  <sodipodi:namedview
     id="namedview475"
     pagecolor="#ffffff"
     bordercolor="#666666"
     borderopacity="1.0"
     inkscape:pageshadow="2"
     inkscape:pageopacity="0.0"
     inkscape:pagecheckerboard="true"
     showgrid="false"
     inkscape:zoom="0.85058595"
     inkscape:cx="383.85304"
     inkscape:cy="253.35476"
     inkscape:window-width="1910"
     inkscape:window-height="1046"
     inkscape:window-x="5"
     inkscape:window-y="29"
     inkscape:window-maximized="1"
     inkscape:current-layer="svg473" />
  <g
     id="g9"
     transform="matrix(1.0054347,0,0,1.0054347,7.1262008,-19.120908)">
    <path
       style="fill:#00aad4;stroke-width:0.621622"
       d="M 430.53463,233.84998 H 171.93961 v 79.56769 h 258.59502 z"
       id="path164" />
    <path
       id="path162"
       style="fill:#ffffff;stroke-width:0.621622"
       d="m 142.10156,174.17383 c -16.47922,0 -29.83789,13.35866 -29.83789,29.83789 v 139.24414 c 0,16.47922 13.35867,29.83789 29.83789,29.83789 h 318.27149 c 16.47921,0 29.83789,-13.35867 29.83789,-29.83789 v -9.94531 h 4.97265 c 8.23959,0 14.91797,-6.68033 14.91797,-14.91993 v -89.51367 c 0,-8.23962 -6.67838,-14.91797 -14.91797,-14.91797 h -4.97265 v -9.94726 c 0,-16.47923 -13.35868,-29.83789 -29.83789,-29.83789 z m 9.94532,39.78515 h 298.3789 v 39.78321 h 19.89258 v 39.7832 h -19.89258 v 39.78516 h -298.3789 z" />
  </g>
</svg>
