<?xml version="1.0" encoding="UTF-8" standalone="no"?>
<svg
   aria-hidden="true"
   focusable="false"
   data-prefix="fas"
   data-icon="battery-quarter"
   class="svg-inline--fa fa-battery-quarter fa-w-20"
   role="img"
   viewBox="0 0 640 512"
   version="1.1"
   id="svg4"
   sodipodi:docname="battery-caution-charging.svg"
   inkscape:version="1.1 (1:1.1+202105261517+ce6663b3b7)"
   xmlns:inkscape="http://www.inkscape.org/namespaces/inkscape"
   xmlns:sodipodi="http://sodipodi.sourceforge.net/DTD/sodipodi-0.dtd"
   xmlns="http://www.w3.org/2000/svg"
   xmlns:svg="http://www.w3.org/2000/svg">
  <defs
     id="defs8" />
  <sodipodi:namedview
     id="namedview6"
     pagecolor="#505050"
     bordercolor="#eeeeee"
     borderopacity="1"
     inkscape:pageshadow="0"
     inkscape:pageopacity="0"
     inkscape:pagecheckerboard="0"
     showgrid="false"
     inkscape:zoom="0.85058594"
     inkscape:cx="361.5155"
     inkscape:cy="369.74512"
     inkscape:window-width="1910"
     inkscape:window-height="1046"
     inkscape:window-x="5"
     inkscape:window-y="29"
     inkscape:window-maximized="1"
     inkscape:current-layer="svg4" />
  <g
     id="g9"
     transform="matrix(0.625,0,0,0.625,120,96)">
    <path
       id="path233"
       style="fill:#ffffff"
       d="M 48,96 C 21.49,96 0,117.49 0,144 v 224 c 0,26.51 21.49,48 48,48 h 512 c 26.51,0 48,-21.49 48,-48 v -16 h 8 c 13.255,0 24,-10.745 24,-24 V 184 c 0,-13.255 -10.745,-24 -24,-24 h -8 v -16 c 0,-26.51 -21.49,-48 -48,-48 z m 16,64 h 480 v 64 h 32 v 64 h -32 v 64 H 64 Z" />
    <path
       style="fill:#00ff00"
       d="M 224,192 H 96 v 128 h 128 z"
       id="path235" />
  </g>
</svg>
