<?xml version="1.0" encoding="UTF-8" standalone="no"?>
<svg
   aria-hidden="true"
   focusable="false"
   data-prefix="fas"
   data-icon="battery-full"
   class="svg-inline--fa fa-battery-full fa-w-20"
   role="img"
   viewBox="0 0 640 512"
   version="1.1"
   id="svg473"
   sodipodi:docname="battery-full.svg"
   inkscape:version="1.1 (1:1.1+202105261517+ce6663b3b7)"
   xmlns:inkscape="http://www.inkscape.org/namespaces/inkscape"
   xmlns:sodipodi="http://sodipodi.sourceforge.net/DTD/sodipodi-0.dtd"
   xmlns="http://www.w3.org/2000/svg"
   xmlns:svg="http://www.w3.org/2000/svg">
  <defs
     id="defs477" />
  <sodipodi:namedview
     id="namedview475"
     pagecolor="#ffffff"
     bordercolor="#666666"
     borderopacity="1.0"
     inkscape:pageshadow="2"
     inkscape:pageopacity="0.0"
     inkscape:pagecheckerboard="true"
     showgrid="false"
     inkscape:zoom="0.85058595"
     inkscape:cx="336.82663"
     inkscape:cy="327.42135"
     inkscape:window-width="1910"
     inkscape:window-height="1046"
     inkscape:window-x="5"
     inkscape:window-y="29"
     inkscape:window-maximized="1"
     inkscape:current-layer="svg473" />
  <path
     fill="currentColor"
     d="M 460.00002,195.99998 V 236 h 19.99999 v 40 h -19.99999 v 40 H 159.99999 V 195.99998 H 460.00002 M 470.00001,156 H 150 c -16.56876,0 -30,13.43125 -30,30.00002 V 326 c 0,16.56875 13.43124,30 30,30 h 320.00001 c 16.56874,0 30,-13.43125 30,-30 v -10 h 5 C 513.28437,316 520,309.28437 520,301 v -90 c 0,-8.28438 -6.71563,-15.00002 -14.99999,-15.00002 h -5 v -9.99997 c 0,-16.56877 -13.43126,-30.00002 -30,-30.00001 z m -30,60 H 179.99998 v 80 h 260.00003 z"
     id="path471"
     style="fill:#ffffff;stroke-width:0.624999" />
</svg>
